<svg width="24" height="24" viewBox="0 0 24 24" fill="none" xmlns="http://www.w3.org/2000/svg">
<g clip-path="url(#clip0_14_694)">
<path d="M10 19.5C10 20.329 9.328 21 8.5 21C7.672 21 7 20.329 7 19.5C7 18.672 7.672 18 8.5 18C9.328 18 10 18.672 10 19.5ZM13.5 18C12.672 18 12 18.671 12 19.5C12 20.329 12.672 21 13.5 21C14.328 21 15 20.329 15 19.5C15 18.672 14.328 18 13.5 18ZM19.804 3L16.373 15H14.271L16.813 6H0L4.615 17H17.854L21.328 5H23.257L24 3H19.804Z" fill="#00CCBC"/>
</g>
<defs>
<clipPath id="clip0_14_694">
<rect width="24" height="24" fill="white"/>
</clipPath>
</defs>
</svg>
