<svg width="62" height="59" viewBox="0 0 62 59" fill="none" xmlns="http://www.w3.org/2000/svg">
<g clip-path="url(#clip0_15_696)">
<path d="M25.8333 47.9375C25.8333 49.9755 24.0973 51.625 21.9583 51.625C19.8193 51.625 18.0833 49.9755 18.0833 47.9375C18.0833 45.902 19.8193 44.25 21.9583 44.25C24.0973 44.25 25.8333 45.902 25.8333 47.9375ZM34.875 44.25C32.736 44.25 31 45.8995 31 47.9375C31 49.9755 32.736 51.625 34.875 51.625C37.014 51.625 38.75 49.9755 38.75 47.9375C38.75 45.902 37.014 44.25 34.875 44.25ZM51.1603 7.375L42.2969 36.875H36.8667L43.4336 14.75H0L11.9221 41.7917H46.1228L55.0973 12.2917H60.0806L62 7.375H51.1603Z" fill="#8A8585" fill-opacity="0.31"/>
</g>
<defs>
<clipPath id="clip0_15_696">
<rect width="62" height="59" fill="white"/>
</clipPath>
</defs>
</svg>
