<svg width="93" height="82" viewBox="0 0 93 82" fill="none" xmlns="http://www.w3.org/2000/svg">
<g clip-path="url(#clip0_4_6)">
<path d="M71.827 25.8129C67.2235 24.9519 53.9788 22.7243 50.375 22.0956V10.0962C50.375 4.5305 45.1593 0 38.75 0C32.3407 0 27.125 4.5305 27.125 10.0962V35.5743C24.9782 34.4263 22.5215 33.4526 20.0028 33.1314C12.9425 32.2362 7.75 36.3431 7.75 41.6662C7.75 44.4167 9.15663 47.1773 11.7103 49.4255C27.1017 62.9965 33.7513 66.9359 35.1889 82H73.625V76.0277C73.625 58.4182 85.25 55.4217 85.25 41.7619C85.25 33.3979 81.1386 27.5588 71.827 25.8129V25.8129ZM73.2104 53.2214C70.029 58.2883 66.0881 64.5613 65.8828 75.1667H42.129C39.3157 62.115 27.3652 53.5802 17.1895 44.5909C14.5235 42.2471 15.6666 39.9101 18.9022 39.8998C23.7964 39.8793 30.7597 46.3368 34.875 50.8503V10.0962C34.875 8.32983 36.6498 6.83333 38.75 6.83333C40.8502 6.83333 42.625 8.32983 42.625 10.0962V33.8353C42.625 34.9115 43.617 35.7862 44.8415 35.7862C46.0582 35.7862 47.0503 34.9115 47.0503 33.8353V31.8707C47.0503 30.0462 48.949 28.6658 50.9795 29.0246C52.5218 29.2945 53.6378 30.4869 53.6378 31.8707V36.2201C53.6378 37.2963 54.6298 38.171 55.8504 38.171C57.071 38.171 58.063 37.2963 58.063 36.2201V33.3843C58.063 31.57 59.9501 30.1999 61.969 30.5553C63.5035 30.8218 64.6117 32.0039 64.6117 33.3843V38.622C64.6117 39.6983 65.6038 40.5729 66.8244 40.5729C68.045 40.5729 69.037 39.6983 69.037 38.622V35.506C69.037 33.7191 71.1489 32.5438 72.9817 33.2988C75.4811 34.3409 77.5 36.4832 77.5 41.7619C77.5 46.3915 75.6981 49.2547 73.2104 53.2214V53.2214Z" fill="#00CCBC"/>
</g>
<defs>
<clipPath id="clip0_4_6">
<rect width="93" height="82" fill="white"/>
</clipPath>
</defs>
</svg>
