<svg width="74" height="44" viewBox="0 0 74 44" fill="none" xmlns="http://www.w3.org/2000/svg">
<g clip-path="url(#clip0_7_517)">
<path d="M57.1526 13.8508C53.4896 13.3888 42.9508 12.1935 40.0833 11.8562V5.4175C40.0833 2.431 35.9332 0 30.8333 0C25.7335 0 21.5833 2.431 21.5833 5.4175V19.0887C19.8752 18.4727 17.9203 17.9502 15.9162 17.7778C10.2983 17.2975 6.16666 19.5012 6.16666 22.3575C6.16666 23.8333 7.28591 25.3147 9.31782 26.521C21.5648 33.803 26.8558 35.9168 27.9997 44H58.5833V40.7953C58.5833 31.3463 67.8333 29.7385 67.8333 22.4088C67.8333 17.9208 64.5619 14.7877 57.1526 13.8508V13.8508ZM58.2534 28.5578C55.722 31.2767 52.5862 34.6427 52.4228 40.3333H33.522C31.2835 33.33 21.7745 28.7503 13.6777 23.9268C11.5563 22.6692 12.4659 21.4152 15.0405 21.4097C18.9347 21.3987 24.4755 24.8637 27.75 27.2855V5.4175C27.75 4.46967 29.1622 3.66667 30.8333 3.66667C32.5045 3.66667 33.9167 4.46967 33.9167 5.4175V18.1555C33.9167 18.733 34.706 19.2023 35.6803 19.2023C36.6485 19.2023 37.4378 18.733 37.4378 18.1555V17.1013C37.4378 16.1223 38.9487 15.3817 40.5643 15.5742C41.7915 15.719 42.6795 16.3588 42.6795 17.1013V19.4352C42.6795 20.0127 43.4688 20.482 44.4401 20.482C45.4113 20.482 46.2007 20.0127 46.2007 19.4352V17.9135C46.2007 16.94 47.7022 16.2048 49.3087 16.3955C50.5297 16.5385 51.4115 17.1728 51.4115 17.9135V20.724C51.4115 21.3015 52.2008 21.7708 53.1721 21.7708C54.1433 21.7708 54.9327 21.3015 54.9327 20.724V19.052C54.9327 18.0932 56.6131 17.4625 58.0715 17.8677C60.0602 18.4268 61.6667 19.5763 61.6667 22.4088C61.6667 24.893 60.2329 26.4293 58.2534 28.5578V28.5578Z" fill="white"/>
</g>
<defs>
<clipPath id="clip0_7_517">
<rect width="74" height="44" fill="white"/>
</clipPath>
</defs>
</svg>
