<svg width="563" height="528" viewBox="0 0 563 528" fill="none" xmlns="http://www.w3.org/2000/svg">
<path opacity="0.1" d="M236.105 506.476C339.44 506.476 423.209 502.67 423.209 497.975C423.209 493.28 339.44 489.474 236.105 489.474C132.77 489.474 49 493.28 49 497.975C49 502.67 132.77 506.476 236.105 506.476Z" fill="#6C63FF"/>
<path opacity="0.1" d="M186.916 15.4343C198.836 1.89225 217.546 -0.867693 234.577 0.211045C288.072 3.59933 336.361 36.5244 378.13 73.7664C393.252 87.2485 408.139 101.778 417.955 120.344C437.936 158.139 432.009 210.497 404.225 241.633C394.772 252.226 383.312 260.347 371.548 267.546C350.631 280.346 328.061 290.621 304.32 293.546C287.39 295.631 270.251 293.936 253.42 291.026C206.396 282.895 160.238 264.917 121.551 234.158C104.583 220.667 88.5895 203.895 81.5956 182.07C74.6017 160.245 79.0777 132.589 96.4038 119.671C103.57 114.328 112.137 111.915 120.525 109.649C132.872 106.314 145.417 103.026 156.559 96.246C168.068 89.2429 181.695 75.7 179.416 60.1992C176.971 43.5673 175.01 28.9604 186.916 15.4343Z" fill="#6C63FF"/>
<path opacity="0.1" d="M512.959 510C540.596 510 563 507.473 563 504.356C563 501.238 540.596 498.711 512.959 498.711C485.322 498.711 462.918 501.238 462.918 504.356C462.918 507.473 485.322 510 512.959 510Z" fill="#6C63FF"/>
<path d="M309.987 192.075C309.172 190.065 304.865 177.57 304.865 177.57L297.649 153.73C297.649 153.73 292.527 143.677 292.527 141.81C292.527 139.943 283.215 132.475 283.215 132.475C283.215 132.475 275.649 129.602 275.067 129.315C274.485 129.028 265.522 125.248 265.522 125.248C265.522 125.248 261.993 119.331 261.49 120.876L261.49 120.88C261.471 120.841 261.452 120.807 261.434 120.767C260.713 119.049 260.256 117.172 260.089 115.235C260.069 115.063 260.053 114.881 260.036 114.702C262.361 112.693 264.266 109.992 265.587 106.833C266.908 103.673 267.605 100.151 267.617 96.5707C267.616 95.6281 267.566 94.6867 267.468 93.7523C267.532 93.7014 267.599 93.6565 267.669 93.6179C267.813 93.5377 267.777 93.4725 267.67 93.4044C267.707 93.3801 267.743 93.3542 267.78 93.3343C267.973 93.2276 267.844 93.1467 267.657 93.0507L267.669 93.0435C267.931 92.8981 267.599 92.8017 267.332 92.6479C267.318 92.5485 267.305 92.4488 267.289 92.3498C267.348 92.1607 267.384 91.9611 267.396 91.7581C267.42 91.7731 267.441 91.7893 267.466 91.8032C267.531 91.4331 267.53 91.049 267.462 90.6798C267.445 90.7548 267.425 90.8285 267.401 90.9005C267.418 90.5657 267.364 90.2314 267.244 89.9324C267.125 89.6334 266.945 89.3806 266.723 89.2003C266.71 89.1854 266.695 89.1695 266.682 89.1544L267.175 82.7115C274.454 82.273 275.731 66.4852 274.071 65.6081C272.411 64.731 274.071 62.8306 274.071 59.0298C274.071 55.229 268.58 50.9897 268.58 50.9897C268.58 50.9897 266.282 52.4516 262.706 45.1424C259.13 37.8332 245.977 36.6638 245.083 38.5641C244.189 40.4645 238.315 42.9497 230.653 45.7271C222.991 48.5046 224.396 60.0531 225.673 62.5382C226.725 64.5928 227.341 66.9601 227.46 69.4089C227.46 70.8707 229.887 77.0103 229.887 77.0103C229.122 79.1379 231.069 90.7928 231.646 94.1053C231.637 94.2071 231.627 94.3085 231.619 94.4108C231.614 94.4208 231.608 94.4293 231.603 94.4395C231.576 94.493 231.551 94.5486 231.529 94.606C231.405 94.9493 231.364 95.3318 231.411 95.7048C231.369 96.1125 231.413 96.5272 231.54 96.9054C231.584 100.026 232.15 103.099 233.201 105.918C234.252 108.737 235.764 111.237 237.634 113.251C237.643 113.45 237.652 113.651 237.661 113.856C237.768 116.562 237.828 119.762 237.716 122.824C237.711 122.98 237.701 123.134 237.695 123.29C237.272 123.399 236.876 123.632 236.538 123.973C236.199 124.313 235.928 124.75 235.747 125.248C235.025 127.017 230.835 129.746 230.835 129.746C230.835 129.746 223.502 130.177 222.803 131.9C222.105 133.624 211.512 139.368 211.512 139.368C211.512 139.368 205.925 143.533 206.74 148.272C207.166 150.749 205.97 154.596 204.732 157.707C202.142 156.455 199.445 155.597 196.697 155.153L202.631 162.39C202.506 162.638 202.433 162.778 202.433 162.778L199.058 178.001C199.058 178.001 197.894 183.315 196.73 184.607C195.566 185.9 197.777 197.676 197.777 197.676C197.777 197.676 196.497 206.006 195.449 208.16C194.402 210.314 197.079 215.628 197.079 215.628L202.433 231.139L216.634 235.734C216.634 235.734 217.58 235.99 219.11 236.407C219.061 236.778 219.012 237.147 218.962 237.515C218.278 242.456 217.379 247 216.285 248.229C213.608 251.245 213.724 264.745 213.724 264.745L213.84 283.846C213.84 283.846 214.772 307.399 214.306 308.26C214.012 308.804 214.602 309.691 216.158 310.488C216.113 310.843 216.07 311.202 216.029 311.569C215.591 315.476 215.396 319.933 216.401 321.904C216.838 322.969 217.077 324.149 217.1 325.351C217.1 327.218 219.311 331.095 219.311 331.095C219.311 331.095 217.565 347.037 220.475 352.494C223.385 357.951 225.83 367.861 224.433 370.159C224.433 370.159 221.988 376.909 223.152 379.925C224.316 382.94 223.152 384.664 221.639 385.382C220.126 386.1 220.256 391.988 220.256 391.988L223.036 419.993C223.036 419.993 224.549 425.738 223.269 427.749C221.988 429.759 221.988 439.812 223.967 443.259C225.946 446.706 221.174 453.025 221.174 453.025C221.174 453.025 218.264 458.339 222.92 460.062C222.92 460.062 223.851 460.349 222.105 462.647C220.359 464.945 220.01 467.817 221.174 468.823C221.415 469.007 221.667 469.167 221.929 469.301C221.885 469.641 221.839 469.994 221.784 470.368C221.337 473.367 220.494 477.273 218.962 479.163C215.993 483.041 213.431 487.393 211.34 492.111C209.743 495.972 209.045 499.585 210.814 501.28C215.004 505.301 220.359 506.594 223.502 505.014C226.644 503.434 231.068 498.551 231.068 498.551L232.115 492.95C232.115 492.95 231.417 489.503 234.909 488.211C238.401 486.918 241.66 482.323 241.66 482.323V474.878C242.506 474.262 243.322 473.583 244.104 472.844C244.104 472.844 245.734 465.52 244.104 463.078C242.475 460.637 241.893 459.775 243.988 458.195C246.083 456.615 246.367 453.169 244.831 450.153C243.29 447.137 240.845 442.685 242.94 436.366C245.036 430.046 245.804 410.658 245.804 410.658C245.804 410.658 244.826 397.446 245.804 394.43C246.782 391.414 244.686 385.382 244.686 385.382C244.686 385.382 245.385 377.914 246.665 374.467C247.946 371.02 248.993 352.781 248.993 352.781C248.993 352.781 251.321 345.026 251.321 339.999C251.321 334.973 247.713 322.909 253.067 319.75C253.067 319.75 255.395 322.335 254.464 332.675C254.464 332.675 257.141 344.739 257.141 348.473C257.141 352.207 259.12 365.707 259.12 365.707C259.12 365.707 259.353 370.015 260.168 371.595C260.982 373.175 260.168 377.483 260.168 377.483C260.168 377.483 263.194 381.074 262.379 383.371C261.565 385.669 262.519 390.851 262.519 390.851L261.797 423.009C261.797 423.009 259.702 436.796 264.591 445.126C264.591 445.126 262.845 457.333 261.797 458.195C260.75 459.057 265.639 466.525 265.639 466.525C265.639 466.525 264.283 471.363 267.035 471.6V479.594C267.991 481.746 269.301 483.608 270.877 485.051C273.437 487.349 272.39 495.248 272.39 495.248C272.39 495.248 275.649 505.301 284.263 503.147C292.876 500.993 294.04 499.987 293.575 496.397C293.407 495.087 293.035 492.749 292.499 490.095C291.573 485.482 290.152 479.916 288.453 477.17C285.776 472.844 283.564 463.796 283.564 463.796C283.564 463.796 282.517 460.78 283.564 459.775C284.612 458.77 284.146 456.903 284.146 456.903C284.146 456.903 285.166 453.169 284.249 450.871C283.331 448.573 286.009 443.834 286.009 443.834L285.194 421.717L286.009 389.547C286.009 389.547 282.4 384.233 283.913 381.074C285.427 377.914 282.167 373.462 282.167 373.462C282.167 373.462 281.818 373.318 282.749 369.728C283.307 367.612 283.224 365.307 282.517 363.265C282.517 363.265 280.538 354.361 284.03 347.611C284.03 347.611 285.543 338.707 286.009 334.111C286.33 330.917 288.341 318.986 289.538 312.006C289.606 311.611 289.67 311.234 289.732 310.873C291.456 310.993 292.76 311.133 292.76 311.133C292.76 311.133 290.083 287.436 292.76 282.553C295.437 277.67 290.665 240.33 290.665 240.33C290.665 240.33 289.524 233.804 288.821 227.146C288.781 226.767 288.744 226.388 288.707 226.009C290.868 225.789 293.038 225.727 295.204 225.825C300.791 226.256 306.262 223.527 306.379 220.798C306.495 218.07 309.521 207.299 309.987 204.857C310.453 202.416 310.802 194.086 309.987 192.075Z" fill="url(#paint0_linear_14_693)"/>
<path d="M242.067 469.126V482.424C242.067 482.424 238.927 487 235.562 488.287C232.197 489.574 232.87 493.006 232.87 493.006L231.861 498.582C231.861 498.582 227.599 503.444 224.571 505.017C221.542 506.59 216.383 505.303 212.345 501.299C210.64 499.612 211.313 496.014 212.852 492.171C214.857 487.49 217.325 483.157 220.196 479.279C221.672 477.397 222.484 473.508 222.915 470.522C223.234 468.286 223.337 466.553 223.337 466.553L242.067 469.126Z" fill="#4C495A"/>
<path opacity="0.1" d="M242.067 479.05V482.424C242.067 482.424 238.927 487 235.562 488.287C232.197 489.574 232.87 493.006 232.87 493.006L231.861 498.582C231.861 498.582 227.599 503.444 224.571 505.017C221.542 506.59 216.383 505.303 212.345 501.299C210.64 499.612 211.313 496.014 212.852 492.171C212.78 496.209 213.718 500.744 218.29 500.584C223.224 500.385 227.979 498.18 231.861 494.293C231.861 494.293 231.749 484.855 236.908 482.71C238.794 481.917 240.544 480.675 242.067 479.05V479.05Z" fill="black"/>
<path d="M283.118 503.158C274.818 505.303 271.678 495.294 271.678 495.294C271.678 495.294 272.687 487.429 270.219 485.141C268.694 483.69 267.431 481.837 266.518 479.708V466.553L276.613 457.401L282.077 463.567L282.445 463.979C282.445 463.979 284.576 472.987 287.156 477.294C288.793 480.028 290.161 485.57 291.054 490.163C291.57 492.805 291.929 495.133 292.091 496.437C292.539 500.012 291.418 501.013 283.118 503.158Z" fill="#4C495A"/>
<path opacity="0.1" d="M283.118 503.158C274.818 505.303 271.678 495.294 271.678 495.294C271.678 495.294 272.687 487.429 270.219 485.141C268.694 483.69 267.431 481.837 266.518 479.708V474.611C268.12 476.768 271.139 480.943 271.79 482.71C272.687 485.141 272.799 494.007 276.949 495.58C281.099 497.152 289.174 498.582 289.847 494.579C290.127 493.057 290.532 491.577 291.054 490.163C291.57 492.805 291.929 495.133 292.091 496.437C292.539 500.012 291.418 501.013 283.118 503.158Z" fill="black"/>
<path opacity="0.1" d="M223.337 466.553L242.067 469.126V476.156C239.954 477.752 236.926 479.445 235.226 477.706C232.713 475.143 225.243 471.889 222.915 470.522C223.234 468.286 223.337 466.553 223.337 466.553Z" fill="black"/>
<path opacity="0.1" d="M282.445 465.123C279.865 463.979 275.267 468.983 269.21 472.129C268.368 472.635 267.449 472.897 266.518 472.896V466.553L276.613 457.401L282.077 463.567C282.161 464.099 282.284 464.62 282.445 465.123Z" fill="black"/>
<path d="M289.062 307.691C289.062 307.691 288.708 309.796 288.201 312.85C287.048 319.8 285.11 331.679 284.8 334.859C284.352 339.435 282.894 348.3 282.894 348.3C279.529 355.021 281.435 363.886 281.435 363.886C282.117 365.926 282.197 368.212 281.66 370.321C280.762 373.895 281.099 374.038 281.099 374.038C281.099 374.038 284.239 378.471 282.781 381.617C281.323 384.763 284.8 390.053 284.8 390.053L284.015 422.083L284.8 444.103C284.8 444.103 282.221 448.822 283.104 451.11C283.988 453.398 283.006 457.115 283.006 457.115C283.006 457.115 283.454 458.974 282.445 459.975C281.435 460.976 282.445 463.979 282.445 463.979C279.865 462.835 275.267 467.84 269.21 470.985C263.153 474.131 265.172 466.696 265.172 466.696C265.172 466.696 260.462 459.26 261.471 458.402C262.48 457.544 264.163 445.39 264.163 445.39C259.452 437.097 261.471 423.37 261.471 423.37L262.166 391.352C262.166 391.352 261.247 386.192 262.032 383.905C262.817 381.617 259.901 378.042 259.901 378.042C259.901 378.042 260.686 373.752 259.901 372.179C259.116 370.607 258.891 366.317 258.891 366.317C258.891 366.317 256.985 352.876 256.985 349.158C256.985 345.44 254.405 333.429 254.405 333.429C255.302 323.134 253.059 320.56 253.059 320.56C247.9 323.706 251.377 335.717 251.377 340.722C251.377 345.726 249.133 353.448 249.133 353.448C249.133 353.448 248.124 371.608 246.89 375.039C245.657 378.471 244.984 385.907 244.984 385.907C244.984 385.907 247.002 391.912 246.06 394.915C245.118 397.918 246.06 411.073 246.06 411.073C246.06 411.073 245.32 430.376 243.301 436.668C241.282 442.959 243.638 447.392 245.123 450.395C246.603 453.398 246.329 456.829 244.311 458.402C242.292 459.975 242.852 460.833 244.423 463.264C245.993 465.695 244.423 472.987 244.423 472.987C244.423 472.987 238.03 479.422 235.226 476.562C232.422 473.702 223.449 469.984 222.327 468.984C221.206 467.983 221.542 465.123 223.225 462.835C224.907 460.547 224.01 460.261 224.01 460.261C219.523 458.545 222.327 453.255 222.327 453.255C222.327 453.255 226.926 446.963 225.019 443.531C223.112 440.1 223.112 430.09 224.346 428.088C225.58 426.087 224.122 420.367 224.122 420.367L221.443 392.484C221.443 392.484 221.318 386.621 222.776 385.906C224.234 385.192 225.356 383.476 224.234 380.473C223.112 377.47 225.468 370.75 225.468 370.75C226.814 368.462 224.458 358.595 221.654 353.162C218.85 347.728 220.533 331.856 220.533 331.856C220.533 331.856 218.402 327.996 218.402 326.137C218.381 324.943 218.151 323.771 217.729 322.705C216.76 320.743 216.948 316.305 217.37 312.416C217.778 308.652 218.402 305.403 218.402 305.403L289.062 307.691Z" fill="#5F5D7E"/>
<path d="M267.079 145.684L244.984 152.261C244.984 152.261 234.104 140.536 236.796 134.245C237.72 132.083 238.128 128.394 238.267 124.493C238.375 121.444 238.317 118.258 238.214 115.565C238.057 111.67 237.805 108.793 237.805 108.793C237.805 108.793 260.462 92.4918 259.676 108.793C259.517 111.507 259.566 114.235 259.825 116.937C259.985 118.86 260.424 120.728 261.121 122.445C262.332 125.196 263.826 125.236 263.826 125.236L267.079 145.684Z" fill="#FDC2CC"/>
<path opacity="0.1" d="M259.825 116.937C256.631 119.857 252.756 121.312 248.831 121.062C244.906 120.813 241.163 118.875 238.214 115.565C238.057 111.67 237.805 108.793 237.805 108.793C237.805 108.793 260.462 92.4918 259.676 108.793C259.517 111.507 259.566 114.235 259.825 116.937V116.937Z" fill="black"/>
<path d="M249.694 120.518C259.296 120.518 267.079 110.595 267.079 98.3543C267.079 86.1138 259.296 76.1909 249.694 76.1909C240.093 76.1909 232.31 86.1138 232.31 98.3543C232.31 110.595 240.093 120.518 249.694 120.518Z" fill="#FDC2CC"/>
<path opacity="0.1" d="M267.079 145.684L244.984 152.261C244.984 152.261 234.104 140.536 236.796 134.245C237.72 132.083 238.128 128.394 238.267 124.493C238.755 127.885 240.184 130.94 242.292 133.101C247.339 137.39 246.554 142.681 246.554 142.681L255.639 142.252C255.078 137.533 258.443 134.96 259.564 134.388C260.686 133.816 260.125 131.242 260.125 131.242L261.121 122.445C262.332 125.196 263.826 125.236 263.826 125.236L267.079 145.684Z" fill="black"/>
<path opacity="0.1" d="M289.062 307.691C289.062 307.691 288.708 309.796 288.201 312.85C285.76 312.684 282.535 312.564 281.099 312.982C278.631 313.697 268.761 313.983 268.761 313.983L244.311 315.087V314.126C241.498 314.155 238.689 314.393 235.899 314.841C231.749 315.556 225.243 314.555 221.094 313.697C219.816 313.463 218.566 313.033 217.37 312.415C217.778 308.652 218.402 305.403 218.402 305.403L289.062 307.691Z" fill="black"/>
<path d="M287.156 216.893C286.801 219.564 287.061 223.991 287.51 228.361C288.187 234.99 289.287 241.487 289.287 241.487C289.287 241.487 293.885 278.664 291.305 283.526C288.726 288.388 291.305 311.981 291.305 311.981C291.305 311.981 283.566 311.123 281.099 311.838C278.631 312.553 268.761 312.839 268.761 312.839L244.311 313.943V312.982C241.498 313.011 238.689 313.249 235.899 313.697C231.749 314.412 225.243 313.411 221.094 312.553C216.944 311.695 215.261 309.979 215.71 309.121C216.159 308.263 215.261 284.813 215.261 284.813L215.149 265.795C215.149 265.795 215.037 252.354 217.617 249.351C218.671 248.127 219.537 243.603 220.196 238.684C221.143 231.563 221.654 223.613 221.654 223.613L204.606 165.416L204.27 164.273C204.27 164.273 209.205 154.549 208.419 149.831C207.634 145.112 213.018 140.965 213.018 140.965C213.018 140.965 223.225 135.246 223.898 133.53C224.57 131.814 231.637 131.385 231.637 131.385C231.637 131.385 235.674 128.668 236.37 126.907C236.539 126.414 236.798 125.981 237.125 125.642C237.452 125.302 237.837 125.067 238.249 124.956C238.725 128.39 240.161 131.487 242.292 133.673C247.339 137.962 246.554 143.253 246.554 143.253L255.639 142.824C255.078 138.105 258.443 135.532 259.564 134.96C260.686 134.388 260.125 131.814 260.125 131.814L261.175 122.554C261.659 121.015 265.06 126.907 265.06 126.907C265.06 126.907 273.696 130.67 274.257 130.956C274.818 131.242 282.108 134.102 282.108 134.102C282.108 134.102 291.081 141.537 291.081 143.396C291.081 145.255 296.016 155.264 296.016 155.264C296.016 155.264 295.958 155.665 295.85 156.397C294.711 164.278 287.977 210.744 287.156 216.893Z" fill="#FABD01"/>
<path d="M251.265 193.728C251.265 193.728 231.861 187.151 229.954 185.578C228.047 184.005 216.831 193.156 230.515 205.597C230.515 205.597 247.247 210.029 251.723 205.597C256.2 201.164 251.265 193.728 251.265 193.728Z" fill="#FDC2CC"/>
<path opacity="0.1" d="M293.212 154.549L295.568 154.692L302.522 178.429C302.522 178.429 306.671 190.869 307.457 192.87C308.242 194.872 307.905 203.166 307.457 205.597C307.008 208.027 304.092 218.752 303.98 221.468C303.867 224.185 298.596 226.902 293.212 226.473C287.829 226.044 275.267 228.189 275.267 228.189C275.267 228.189 261.851 226.401 253.62 231.764C253.62 231.764 248.348 217.894 248.909 192.013C248.909 192.013 258.218 191.298 260.574 192.442C262.929 193.585 274.369 196.874 275.828 195.158C277.286 193.442 283.903 198.304 283.903 198.304C284.24 197.361 284.414 196.337 284.414 195.301C284.414 194.265 284.24 193.241 283.903 192.299C282.781 188.867 280.875 178.143 283.342 174.711C285.81 171.279 293.212 154.549 293.212 154.549Z" fill="black"/>
<path opacity="0.1" d="M287.51 228.361C281.942 228.841 275.715 229.905 275.715 229.905C275.715 229.905 262.301 228.115 254.069 233.48C254.069 233.48 248.797 219.61 249.358 193.728C249.358 193.728 258.667 193.013 261.022 194.157C263.378 195.301 274.818 198.59 276.276 196.874C277.734 195.158 284.352 200.02 284.352 200.02C284.688 199.077 284.863 198.053 284.863 197.017C284.863 195.981 284.688 194.957 284.352 194.014C283.23 190.583 281.323 179.858 283.791 176.427C286.258 172.995 293.661 156.265 293.661 156.265L295.85 156.397C294.711 164.278 287.977 210.744 287.156 216.893C286.801 219.564 287.061 223.991 287.51 228.361Z" fill="black"/>
<path d="M293.661 155.121L296.016 155.264L302.97 179C302.97 179 307.12 191.441 307.905 193.442C308.69 195.444 308.354 203.738 307.905 206.169C307.456 208.599 304.54 219.324 304.428 222.04C304.316 224.757 299.045 227.474 293.661 227.045C288.277 226.616 275.715 228.761 275.715 228.761C275.715 228.761 262.3 226.973 254.069 232.336C254.069 232.336 248.797 218.466 249.358 192.584C249.358 192.584 258.667 191.87 261.022 193.013C263.378 194.157 274.818 197.446 276.276 195.73C277.734 194.014 284.352 198.876 284.352 198.876C284.688 197.933 284.863 196.909 284.863 195.873C284.863 194.837 284.688 193.813 284.352 192.87C283.23 189.439 281.323 178.715 283.791 175.283C286.258 171.851 293.661 155.121 293.661 155.121Z" fill="#FABD01"/>
<path d="M269.965 207.643L272.763 209.852L288.359 177.741L285.56 175.532L269.965 207.643Z" fill="#DFE6F5"/>
<path d="M296.356 173.393C299.112 167.718 298.816 161.119 295.693 158.654C292.571 156.19 287.806 158.792 285.049 164.467C282.293 170.142 282.59 176.741 285.712 179.206C288.834 181.67 293.6 179.068 296.356 173.393Z" fill="#DFE6F5"/>
<path opacity="0.1" d="M294.76 172.133C296.739 168.06 296.526 163.323 294.285 161.554C292.044 159.785 288.623 161.653 286.645 165.727C284.666 169.8 284.879 174.537 287.12 176.306C289.361 178.075 292.782 176.207 294.76 172.133Z" fill="black"/>
<path d="M261.993 224.055L264.792 226.265L274.496 206.284L271.697 204.075L261.993 224.055Z" fill="#53526B"/>
<path d="M245.544 225.472L252.386 223.041C252.386 223.041 286.146 224.185 274.818 206.455C274.818 206.455 268.874 199.162 256.424 205.025C243.974 210.887 240.497 211.602 240.497 211.602L245.544 225.472Z" fill="#FDC2CC"/>
<path opacity="0.1" d="M240.497 150.689C241.24 150.689 241.843 149.92 241.843 148.973C241.843 148.025 241.24 147.257 240.497 147.257C239.754 147.257 239.151 148.025 239.151 148.973C239.151 149.92 239.754 150.689 240.497 150.689Z" fill="black"/>
<path opacity="0.1" d="M263.602 149.688C264.345 149.688 264.948 148.919 264.948 147.972C264.948 147.024 264.345 146.256 263.602 146.256C262.859 146.256 262.256 147.024 262.256 147.972C262.256 148.919 262.859 149.688 263.602 149.688Z" fill="black"/>
<path d="M240.497 150.117C241.24 150.117 241.843 149.348 241.843 148.401C241.843 147.453 241.24 146.685 240.497 146.685C239.754 146.685 239.151 147.453 239.151 148.401C239.151 149.348 239.754 150.117 240.497 150.117Z" fill="white"/>
<path opacity="0.1" d="M242.404 174.425C243.147 174.425 243.75 173.657 243.75 172.709C243.75 171.761 243.147 170.993 242.404 170.993C241.661 170.993 241.058 171.761 241.058 172.709C241.058 173.657 241.661 174.425 242.404 174.425Z" fill="black"/>
<path opacity="0.1" d="M264.275 172.709C265.018 172.709 265.621 171.941 265.621 170.993C265.621 170.045 265.018 169.277 264.275 169.277C263.532 169.277 262.929 170.045 262.929 170.993C262.929 171.941 263.532 172.709 264.275 172.709Z" fill="black"/>
<path d="M242.404 173.853C243.147 173.853 243.75 173.085 243.75 172.137C243.75 171.189 243.147 170.421 242.404 170.421C241.661 170.421 241.058 171.189 241.058 172.137C241.058 173.085 241.661 173.853 242.404 173.853Z" fill="white"/>
<path opacity="0.1" d="M263.714 255.51C264.458 255.51 265.06 254.741 265.06 253.794C265.06 252.846 264.458 252.078 263.714 252.078C262.971 252.078 262.368 252.846 262.368 253.794C262.368 254.741 262.971 255.51 263.714 255.51Z" fill="black"/>
<path opacity="0.1" d="M246.001 255.51C246.744 255.51 247.347 254.741 247.347 253.794C247.347 252.846 246.744 252.078 246.001 252.078C245.257 252.078 244.655 252.846 244.655 253.794C244.655 254.741 245.257 255.51 246.001 255.51Z" fill="black"/>
<path d="M263.714 254.938C264.458 254.938 265.06 254.169 265.06 253.222C265.06 252.274 264.458 251.506 263.714 251.506C262.971 251.506 262.368 252.274 262.368 253.222C262.368 254.169 262.971 254.938 263.714 254.938Z" fill="white"/>
<path opacity="0.1" d="M247.347 284.241C248.09 284.241 248.693 283.473 248.693 282.525C248.693 281.577 248.09 280.809 247.347 280.809C246.603 280.809 246.001 281.577 246.001 282.525C246.001 283.473 246.603 284.241 247.347 284.241Z" fill="black"/>
<path opacity="0.1" d="M264.275 282.525C265.018 282.525 265.621 281.757 265.621 280.809C265.621 279.861 265.018 279.093 264.275 279.093C263.532 279.093 262.929 279.861 262.929 280.809C262.929 281.757 263.532 282.525 264.275 282.525Z" fill="black"/>
<path d="M247.347 283.669C248.09 283.669 248.693 282.901 248.693 281.953C248.693 281.005 248.09 280.237 247.347 280.237C246.603 280.237 246.001 281.005 246.001 281.953C246.001 282.901 246.603 283.669 247.347 283.669Z" fill="white"/>
<path d="M246.001 254.938C246.744 254.938 247.347 254.169 247.347 253.222C247.347 252.274 246.744 251.506 246.001 251.506C245.257 251.506 244.655 252.274 244.655 253.222C244.655 254.169 245.257 254.938 246.001 254.938Z" fill="white"/>
<path d="M264.275 281.953C265.018 281.953 265.621 281.185 265.621 280.237C265.621 279.289 265.018 278.521 264.275 278.521C263.532 278.521 262.929 279.289 262.929 280.237C262.929 281.185 263.532 281.953 264.275 281.953Z" fill="white"/>
<path d="M263.602 149.116C264.345 149.116 264.948 148.347 264.948 147.4C264.948 146.452 264.345 145.684 263.602 145.684C262.859 145.684 262.256 146.452 262.256 147.4C262.256 148.347 262.859 149.116 263.602 149.116Z" fill="white"/>
<path d="M264.275 172.137C265.018 172.137 265.621 171.369 265.621 170.421C265.621 169.473 265.018 168.705 264.275 168.705C263.532 168.705 262.929 169.473 262.929 170.421C262.929 171.369 263.532 172.137 264.275 172.137Z" fill="white"/>
<path opacity="0.1" d="M266.294 230.62C266.294 230.62 266.518 269.799 267.191 276.805C267.191 276.805 267.435 232.467 266.294 230.62Z" fill="black"/>
<path opacity="0.1" d="M272.014 248.779C271.552 248.779 281.211 294.679 281.66 297.968C282.108 301.257 274.706 248.779 272.014 248.779Z" fill="black"/>
<path opacity="0.1" d="M279.641 241.344C279.641 241.773 285.025 266.224 287.716 267.511C290.408 268.798 279.641 241.344 279.641 241.344Z" fill="black"/>
<path opacity="0.1" d="M300.839 193.728C300.839 193.728 289.399 194.379 289.062 196.484C288.726 198.59 300.839 193.728 300.839 193.728Z" fill="black"/>
<path opacity="0.1" d="M280.65 380.187C280.65 380.187 272.463 384.619 273.696 384.905C274.93 385.191 280.65 380.187 280.65 380.187Z" fill="black"/>
<path opacity="0.1" d="M263.714 373.609C263.395 372.695 269.21 377.327 269.21 377.899C269.21 378.471 264.163 374.896 263.714 373.609Z" fill="black"/>
<path opacity="0.1" d="M271.341 388.623C271.341 388.623 277.734 388.212 278.183 391.349C278.631 394.486 271.341 388.623 271.341 388.623Z" fill="black"/>
<path opacity="0.1" d="M225.356 388.605C225.356 388.605 232.309 386.872 232.87 388.605C233.431 390.339 225.356 388.605 225.356 388.605Z" fill="black"/>
<path opacity="0.1" d="M227.935 442.53C227.935 442.53 228.391 449.823 226.705 451.539C225.019 453.255 227.935 442.53 227.935 442.53Z" fill="black"/>
<path opacity="0.1" d="M227.086 457.973C229.281 458.259 240.834 455.685 240.721 457.973C240.609 460.261 227.086 457.973 227.086 457.973Z" fill="black"/>
<path opacity="0.1" d="M280.089 449.108C280.089 449.108 276.149 448.336 277.11 451.725L280.089 449.108Z" fill="black"/>
<path opacity="0.1" d="M206.849 163.701H204.718L201.466 178.857C201.466 178.857 200.344 184.148 199.222 185.435C198.101 186.722 200.232 198.447 200.232 198.447C200.232 198.447 198.998 206.74 197.989 208.885C196.979 211.03 199.559 216.321 199.559 216.321L204.718 231.764L218.402 236.339C218.402 236.339 242.516 243.06 243.638 244.061C244.759 245.062 245.769 243.632 246.554 234.337C247.339 225.043 249.47 207.026 251.152 206.169C251.152 206.169 237.693 208.027 236.572 207.741C235.45 207.455 230.066 207.884 230.066 207.884C230.066 207.884 223 207.312 221.879 208.17C220.757 209.028 223.337 204.017 223.337 204.017C223.809 201.723 223.809 199.312 223.337 197.017C222.552 193.156 222.103 149.402 206.849 163.701Z" fill="black"/>
<path opacity="0.1" d="M250.704 207.884C249.021 208.742 246.89 226.759 246.105 236.053C245.32 245.348 244.311 246.778 243.189 245.777C242.278 244.964 226.204 240.377 220.196 238.684C221.143 231.563 221.654 223.613 221.654 223.613L204.606 165.416H206.401C221.654 151.118 222.103 194.872 222.888 198.733C223.36 201.028 223.36 203.439 222.888 205.734C222.888 205.734 220.308 210.744 221.43 209.886C222.552 209.028 229.618 209.6 229.618 209.6C229.618 209.6 235.001 209.171 236.123 209.457C237.245 209.743 250.704 207.884 250.704 207.884Z" fill="black"/>
<path d="M206.401 164.273H204.27L201.017 179.429C201.017 179.429 199.895 184.72 198.774 186.007C197.652 187.294 199.783 199.019 199.783 199.019C199.783 199.019 198.549 207.312 197.54 209.457C196.531 211.602 199.11 216.893 199.11 216.893L204.27 232.336L217.953 236.911C217.953 236.911 242.067 243.632 243.189 244.633C244.311 245.634 245.32 244.204 246.105 234.909C246.89 225.615 249.021 207.598 250.704 206.741C250.704 206.741 237.245 208.599 236.123 208.313C235.001 208.027 229.618 208.456 229.618 208.456C229.618 208.456 222.552 207.884 221.43 208.742C220.308 209.6 222.888 204.589 222.888 204.589C223.36 202.295 223.36 199.884 222.888 197.589C222.103 193.728 221.654 149.974 206.401 164.273Z" fill="#FABD01"/>
<path opacity="0.1" d="M213.691 216.035C213.691 216.035 207.522 230.906 206.401 229.19C205.279 227.474 213.691 216.035 213.691 216.035Z" fill="black"/>
<path opacity="0.1" d="M207.298 207.567C207.298 207.567 201.578 213.604 204.27 215.177C206.961 216.75 207.298 207.567 207.298 207.567Z" fill="black"/>
<path opacity="0.1" d="M212.682 200.163C213.13 200.306 220.981 202.294 221.094 203.159C221.206 204.024 212.682 200.163 212.682 200.163Z" fill="black"/>
<path opacity="0.1" d="M267.128 95.4145C266.884 95.5239 266.676 95.7343 266.537 96.0122C266.398 96.29 266.336 96.6193 266.361 96.9473C265.904 97.4621 265.262 96.8558 264.89 96.1981C264.513 95.546 264.087 94.7396 263.517 94.8311C263.246 94.9411 262.983 95.0808 262.732 95.2486C261.834 95.6146 261.076 94.2706 260.574 93.0923C259.699 91.0276 258.824 88.9647 257.949 86.9037C256.195 88.2021 254.122 86.8408 252.382 85.4967C250.641 84.1526 248.568 82.7856 246.809 84.084C244.23 85.9829 244.136 92.3145 241.462 93.8759C240.6 94.3792 239.6 94.2705 238.801 94.9626C238.012 95.649 237.585 96.9702 237.231 98.2342C237.1 98.9538 236.792 99.6011 236.352 100.082C236.072 100.268 235.761 100.364 235.445 100.362C234.653 100.534 233.838 100.388 233.113 99.9444C232.732 99.6399 232.445 99.1792 232.298 98.6384C232.152 98.0976 232.154 97.5091 232.305 96.9702C232.326 96.9131 232.35 96.8577 232.377 96.8043C232.664 96.3614 232.922 95.8889 233.148 95.3916C233.418 94.4822 233.032 93.4241 233.117 92.4403C233.256 90.7587 234.651 89.8722 234.889 88.2192C234.988 87.5729 234.885 86.8809 234.979 86.2288C234.992 86.1434 235.01 86.0593 235.033 85.9772L234.212 86.6978C235.131 85.3308 235.594 83.432 236.266 81.7733C237.014 79.9572 238.043 78.3532 239.29 77.0585C240.538 75.7638 241.979 74.8051 243.525 74.2405C246.451 73.1539 249.542 73.4512 252.494 74.3721C255.301 75.2637 257.99 76.6762 260.475 78.5645C261.363 79.1715 262.151 79.9887 262.799 80.9725C263.341 81.9925 263.803 83.0788 264.176 84.2155C265.047 86.5148 267.424 88.6424 265.531 88.9627C263.956 89.2316 265.392 90.6386 266.218 91.588C266.404 91.7742 266.564 91.9984 266.693 92.2515C266.83 92.6132 266.893 93.0134 266.876 93.4145C266.858 93.8156 266.762 94.2046 266.594 94.5451C266.276 95.0599 267.568 95.1628 267.128 95.4145Z" fill="black"/>
<path d="M267.128 94.8425C266.884 94.9519 266.676 95.1623 266.537 95.4402C266.398 95.718 266.336 96.0473 266.361 96.3754C265.904 96.8901 265.262 96.2838 264.89 95.6261C264.513 94.974 264.087 94.1676 263.517 94.2591C263.246 94.3692 262.983 94.5089 262.732 94.6766C261.834 95.0427 261.076 93.6986 260.574 92.5203C259.699 90.4556 258.824 88.3927 257.949 86.3318C256.195 87.6301 254.122 86.2688 252.382 84.9247C250.641 83.5806 248.568 82.2136 246.81 83.512C244.23 85.4109 244.136 91.7425 241.462 93.3039C240.6 93.8073 239.6 93.6986 238.801 94.3907C238.012 95.077 237.585 96.3982 237.231 97.6623C237.1 98.3818 236.792 99.0291 236.352 99.5097C236.072 99.6961 235.761 99.7923 235.445 99.79C234.653 99.9617 233.838 99.8158 233.113 99.3724C232.732 99.0679 232.445 98.6072 232.298 98.0664C232.152 97.5256 232.154 96.9371 232.305 96.3982C232.326 96.3411 232.35 96.2857 232.377 96.2324C232.664 95.7894 232.922 95.3169 233.148 94.8196C233.418 93.9102 233.032 92.8521 233.117 91.8683C233.256 90.1868 234.651 89.3002 234.889 87.6472C234.988 87.0009 234.885 86.3089 234.979 85.6568C234.992 85.5714 235.01 85.4873 235.033 85.4052L234.212 86.1259C235.131 84.7589 235.594 82.86 236.266 81.2013C237.014 79.3852 238.043 77.7813 239.29 76.4865C240.538 75.1918 241.979 74.2332 243.525 73.6686C246.451 72.5819 249.542 72.8793 252.494 73.8001C255.301 74.6917 257.99 76.1043 260.475 77.9926C261.363 78.5995 262.151 79.4168 262.799 80.4005C263.341 81.4205 263.803 82.5069 264.176 83.6435C265.047 85.9428 267.424 88.0705 265.531 88.3908C263.956 88.6596 265.392 90.0666 266.218 91.0161C266.404 91.2022 266.564 91.4264 266.693 91.6795C266.83 92.0413 266.893 92.4414 266.876 92.8425C266.858 93.2437 266.762 93.6326 266.594 93.9731C266.276 94.4879 267.568 94.5908 267.128 94.8425Z" fill="#865A61"/>
<path opacity="0.1" d="M266.218 91.0161L266.038 93.4241C266.038 93.4241 247.213 63.0073 232.57 97.3534C232.57 97.3534 232.498 96.9359 232.377 96.2324C232.664 95.7894 232.922 95.3169 233.148 94.8196C233.418 93.9102 233.032 92.8521 233.117 91.8683C233.256 90.1868 234.651 89.3002 234.889 87.6473C234.988 87.0009 234.885 86.3089 234.979 85.6568C234.992 85.5714 235.01 85.4873 235.033 85.4052L234.212 86.1259C235.131 84.7589 235.594 82.86 236.267 81.2013C237.014 79.3852 238.043 77.7813 239.291 76.4865C240.538 75.1918 241.979 74.2332 243.526 73.6686C246.451 72.5819 249.542 72.8793 252.494 73.8001C255.301 74.6917 257.99 76.1043 260.475 77.9926C261.363 78.5995 262.152 79.4168 262.799 80.4005C263.341 81.4205 263.803 82.5069 264.176 83.6435C265.047 85.9428 267.424 88.0705 265.531 88.3908C263.956 88.6596 265.392 90.0667 266.218 91.0161Z" fill="black"/>
<g opacity="0.1">
<path opacity="0.1" d="M266.682 94.531C266.589 94.664 266.521 94.8225 266.484 94.9942C266.447 95.1659 266.442 95.3461 266.468 95.5209C266.011 96.0357 265.369 95.4295 264.997 94.7717C264.62 94.1196 264.194 93.3132 263.624 93.4047C263.353 93.5148 263.091 93.6545 262.839 93.8222C261.942 94.1883 261.183 92.8442 260.681 91.666C259.806 89.6012 258.931 87.5383 258.056 85.4774C256.302 86.7757 254.23 85.4144 252.489 84.0703C250.748 82.7262 248.675 81.3593 246.917 82.6576C244.337 84.5565 244.243 90.8881 241.569 92.4495C240.708 92.9529 239.707 92.8442 238.909 93.5363C238.119 94.2226 237.693 95.5438 237.338 96.8079C237.207 97.5274 236.899 98.1747 236.459 98.6553C236.179 98.8417 235.868 98.9379 235.553 98.9356C234.76 99.1073 233.945 98.9614 233.22 98.518C232.785 98.1506 232.474 97.5901 232.346 96.9457C232.256 97.4581 232.292 97.9929 232.449 98.4785C232.605 98.964 232.874 99.377 233.22 99.6619C233.945 100.105 234.76 100.251 235.553 100.079C235.868 100.082 236.179 99.9856 236.459 99.7992C236.899 99.3186 237.207 98.6713 237.338 97.9518C237.693 96.6877 238.119 95.3665 238.909 94.6802C239.707 93.9881 240.708 94.0968 241.569 93.5935C244.243 92.032 244.337 85.7004 246.917 83.8015C248.675 82.5032 250.748 83.8702 252.489 85.2142C254.23 86.5583 256.302 87.9196 258.056 86.6213C258.931 88.6803 259.806 90.7432 260.681 92.8099C261.183 93.9881 261.942 95.3322 262.839 94.9662C263.091 94.7984 263.353 94.6587 263.624 94.5486C264.194 94.4571 264.62 95.2636 264.997 95.9156C265.369 96.5734 266.011 97.1796 266.468 96.6649C266.443 96.3368 266.506 96.0076 266.645 95.7297C266.784 95.4518 266.992 95.2414 267.236 95.132C267.585 94.9319 266.841 94.8251 266.682 94.531Z" fill="black"/>
<path opacity="0.1" d="M265.215 88.8166C265.351 88.7471 265.493 88.7012 265.638 88.6803C266.473 88.5391 266.477 88.0459 266.146 87.3423C265.989 87.4503 265.816 87.5164 265.638 87.5364C264.738 87.6902 264.823 88.2167 265.215 88.8166Z" fill="black"/>
<path opacity="0.1" d="M266.934 93.6076C266.996 93.2388 266.994 92.857 266.929 92.4891C266.889 92.7171 266.811 92.9317 266.702 93.1187C266.561 93.3458 266.734 93.4927 266.934 93.6076Z" fill="black"/>
<path opacity="0.1" d="M233.25 91.96C233.241 92.0254 233.23 92.09 233.224 92.1578C233.206 92.6729 233.235 93.189 233.312 93.6953C233.365 93.1164 233.344 92.5304 233.25 91.96V91.96Z" fill="black"/>
<path opacity="0.1" d="M235.072 84.9818C234.861 85.4917 234.608 85.9722 234.319 86.4154L235.043 85.7798C235.04 85.5133 235.049 85.2468 235.072 84.9818V84.9818Z" fill="black"/>
</g>
<path d="M232.569 96.7815C232.569 96.7815 229.862 81.3536 230.723 78.8793C230.723 78.8793 228.385 72.7664 228.385 71.3109C228.272 68.8822 227.679 66.5292 226.662 64.4702C225.432 61.9959 224.078 50.4978 231.461 47.7324C238.844 44.967 244.504 42.4927 245.366 40.6007C246.227 38.7086 258.901 39.8729 262.346 47.1502C265.792 54.4275 268.007 52.9721 268.007 52.9721C268.007 52.9721 273.298 57.1929 273.298 60.9771C273.298 64.7613 271.698 66.6534 273.298 67.5267C274.897 68.4 273.667 84.1189 266.653 84.5556L266.038 92.8517C266.038 92.8517 247.212 62.4326 232.569 96.7815Z" fill="#450063"/>
<path opacity="0.1" d="M233.375 50.7388C233.375 50.7388 231.749 62.8929 234.721 66.9681L233.375 50.7388Z" fill="black"/>
<path opacity="0.1" d="M241.002 47.9505C241.002 47.9505 236.852 60.9626 237.861 63.4649L241.002 47.9505Z" fill="black"/>
<path opacity="0.1" d="M244.591 43.8038C244.591 43.8038 241.787 60.7481 243.133 62.1065L244.591 43.8038Z" fill="black"/>
<path opacity="0.1" d="M249.414 48.3795C249.414 48.3795 245.937 59.2467 247.339 60.7481L249.414 48.3795Z" fill="black"/>
<path opacity="0.1" d="M255.975 49.6664C255.975 49.6664 251.881 58.5317 252.723 60.1046L255.975 49.6664Z" fill="black"/>
<path opacity="0.1" d="M264.387 58.3173C264.387 58.3173 260.013 59.8187 260.91 61.606L264.387 58.3173Z" fill="black"/>
<path opacity="0.1" d="M268.537 67.5401C268.537 67.5401 264.611 69.9709 265.341 71.2578L268.537 67.5401Z" fill="black"/>
<path opacity="0.1" d="M230.723 78.8793C230.723 78.8793 255.797 65.8952 266.653 84.5556C266.653 84.5556 253.475 70.2714 230.723 78.8793Z" fill="black"/>
<path d="M221.662 185.566L225.156 181.06L235.034 193.508L231.54 198.014L222.456 186.566L221.662 185.566Z" fill="#53526B"/>
<path d="M198.742 156.681C198.742 156.681 214.033 158.34 228.265 178.762L222.334 186.412L198.742 156.681Z" fill="#DFE6F5"/>
<path d="M244.608 193.196C244.608 193.196 229.91 186.366 228.466 184.733C227.022 183.099 218.526 192.602 228.891 205.521C228.891 205.521 241.565 210.124 244.955 205.521C248.346 200.918 244.608 193.196 244.608 193.196Z" fill="#FDC2CC"/>
<g clip-path="url(#clip0_14_693)">
<path d="M350.873 522.689L249.902 331.405C249.874 330.937 249.736 330.483 249.501 330.085C249.265 329.686 248.941 329.354 248.554 329.119C248.112 328.852 247.606 328.724 247.096 328.749C247.08 328.747 247.063 328.748 247.047 328.747C247.03 328.748 247.014 328.747 246.997 328.749C246.307 328.715 245.63 328.963 245.109 329.441C244.589 329.919 244.264 330.59 244.203 331.314L137.189 522.689C137.011 523.013 136.895 523.371 136.848 523.743C136.802 524.114 136.825 524.491 136.917 524.853C137.009 525.215 137.169 525.554 137.386 525.852C137.603 526.149 137.873 526.398 138.182 526.586C138.491 526.773 138.832 526.894 139.185 526.943C139.539 526.992 139.898 526.967 140.242 526.87C140.586 526.773 140.909 526.606 141.192 526.378C141.475 526.149 141.712 525.865 141.89 525.54L246.974 337.616L346.172 525.54C346.35 525.865 346.587 526.149 346.87 526.378C347.153 526.606 347.475 526.773 347.82 526.87C348.164 526.967 348.523 526.992 348.877 526.943C349.23 526.894 349.571 526.773 349.88 526.586C350.189 526.398 350.459 526.149 350.676 525.852C350.893 525.554 351.052 525.215 351.145 524.853C351.237 524.491 351.26 524.114 351.214 523.743C351.167 523.371 351.051 523.013 350.873 522.689Z" fill="#3F3D56"/>
<path d="M230.316 489.87L241.728 487.118L237.06 439.555L220.216 443.615L230.316 489.87Z" fill="#FFB6B6"/>
<path d="M239.139 466.892L222.898 470.807L217.704 460.143L217.41 459.765C215.107 456.794 213.828 453.091 213.783 449.259L200.283 411.738L199.179 411.186C198.325 410.76 197.568 410.146 196.957 409.388C196.347 408.629 195.898 407.742 195.64 406.786C195.381 405.83 195.32 404.827 195.46 403.845C195.6 402.862 195.938 401.922 196.451 401.088L195.022 397.116L154.696 397.193L154.656 397.182L105.136 382.586L110.336 350.017L124.265 359.225C128.855 358.912 207.485 353.839 214.748 372.354C221.217 388.843 230.538 417.012 237.219 437.739C237.552 438.669 237.966 439.566 238.456 440.416C239.495 442.098 240.105 444.033 240.227 446.034C240.306 446.905 240.464 447.766 240.699 448.605C243.476 457.326 239.246 466.662 239.203 466.756L239.139 466.892Z" fill="#2F2E41"/>
<path d="M226.46 485.893L230.171 484.998L243.306 475.316L252.422 479.634L252.423 479.633C256.811 478.576 261.419 479.393 265.234 481.906C269.048 484.418 271.757 488.419 272.764 493.03L272.887 493.595L230.38 503.842L226.46 485.893Z" fill="#2F2E41"/>
<path d="M57.9512 486.961C59.1116 473.69 66.5097 460.403 78.3755 455.697C74.06 469.462 74.5173 484.387 79.6664 497.831C81.6701 503.009 84.4118 508.548 82.8391 513.888C81.8607 517.21 79.2981 519.813 76.3958 521.484C73.4933 523.156 70.2417 524.016 67.0306 524.859L66.4112 525.434C60.9058 513.428 56.7909 500.232 57.9512 486.961Z" fill="#F0F0F0"/>
<path d="M78.5022 455.943C71.767 464.404 67.7404 474.88 66.9942 485.883C66.7936 488.249 66.9491 490.633 67.455 492.948C68.0172 495.186 69.1395 497.225 70.7053 498.853C72.1363 500.402 73.7708 501.813 74.8184 503.7C75.3411 504.675 75.6618 505.755 75.7595 506.868C75.8572 507.982 75.7296 509.105 75.3853 510.164C74.5926 512.825 72.9372 515.028 71.2471 517.123C69.3706 519.449 67.3864 521.834 66.651 524.859C66.5619 525.226 66.0258 525.059 66.1148 524.693C67.3943 519.43 72.121 516.306 74.2748 511.532C75.2798 509.304 75.6519 506.745 74.5763 504.466C73.6356 502.472 71.9513 501.016 70.4895 499.461C68.9398 497.896 67.7784 495.956 67.1066 493.811C66.4902 491.531 66.2476 489.157 66.3891 486.791C66.6269 481.46 67.661 476.201 69.4536 471.207C71.4693 465.495 74.4001 460.188 78.119 455.515C78.3493 455.226 78.731 455.655 78.5022 455.943L78.5022 455.943Z" fill="white"/>
<path d="M67.036 482.325C65.2961 481.943 63.7421 480.924 62.6516 479.449C61.5611 477.974 61.005 476.14 61.0827 474.274C61.0866 474.198 61.1184 474.126 61.1714 474.074C61.2244 474.022 61.2946 473.994 61.3671 473.995C61.4395 473.997 61.5087 474.028 61.5599 474.081C61.6112 474.135 61.6405 474.208 61.6418 474.284C61.5664 476.022 62.0845 477.73 63.1027 479.101C64.1208 480.473 65.572 481.416 67.1941 481.762C67.5466 481.838 67.3864 482.4 67.036 482.325H67.036Z" fill="white"/>
<path d="M69.8813 498.168C72.9397 496.107 75.1461 492.91 76.0608 489.215C76.1511 488.849 76.6872 489.015 76.597 489.381C75.6383 493.224 73.3357 496.546 70.1486 498.684C69.8447 498.888 69.5791 498.371 69.8813 498.168H69.8813Z" fill="white"/>
<path d="M72.0047 466.034C72.6486 466.329 73.3522 466.451 74.0523 466.39C74.7524 466.329 75.4271 466.086 76.0159 465.684C76.3172 465.476 76.5825 465.993 76.2832 466.2C75.6308 466.641 74.8853 466.909 74.1119 466.978C73.3385 467.047 72.5608 466.916 71.8466 466.597C71.7769 466.573 71.7185 466.522 71.6834 466.454C71.6483 466.386 71.6391 466.307 71.6576 466.232C71.6789 466.158 71.7273 466.095 71.7923 466.058C71.8573 466.021 71.9336 466.012 72.0047 466.034H72.0047Z" fill="white"/>
<path d="M115.667 478.072C115.482 478.207 115.297 478.342 115.113 478.482C112.639 480.313 110.312 482.352 108.153 484.58C107.983 484.749 107.814 484.923 107.649 485.097C102.502 490.521 98.3583 496.902 95.4281 503.916C94.2645 506.708 93.3048 509.589 92.5572 512.534C91.525 516.601 90.7138 521.097 88.5275 524.469C88.3032 524.823 88.0581 525.163 87.7938 525.486L67.1263 526.183C67.0786 526.16 67.0307 526.142 66.9828 526.118L66.1588 526.186C66.1873 526.031 66.22 525.871 66.2484 525.717C66.2646 525.627 66.2853 525.537 66.3015 525.447C66.3137 525.387 66.3262 525.327 66.3339 525.272C66.3379 525.252 66.3422 525.232 66.3463 525.217C66.3541 525.163 66.3668 525.113 66.3748 525.063C66.5551 524.169 66.7417 523.275 66.9347 522.38C66.9345 522.375 66.9345 522.375 66.939 522.37C68.347 515.541 70.5211 508.911 73.4156 502.62C73.5044 502.434 73.5928 502.242 73.691 502.055C75.0352 499.268 76.594 496.602 78.3517 494.081C79.3184 492.705 80.3508 491.38 81.4449 490.113C84.278 486.845 87.5826 484.066 91.2377 481.877C98.5246 477.514 107.058 475.649 115.057 477.894C115.262 477.951 115.462 478.009 115.667 478.072Z" fill="#F0F0F0"/>
<path d="M115.629 478.349C105.403 480.844 96.1848 486.661 89.2845 494.974C87.7688 496.736 86.5268 498.738 85.6044 500.907C84.7708 503.049 84.4985 505.387 84.8157 507.678C85.0707 509.82 85.5676 511.98 85.3225 514.15C85.1814 515.259 84.8189 516.324 84.2586 517.275C83.6983 518.226 82.953 519.042 82.0715 519.67C79.9139 521.293 77.3299 522.004 74.7799 522.608C71.9486 523.279 68.9978 523.928 66.6773 525.878C66.3961 526.114 66.0637 525.642 66.3444 525.406C70.3816 522.013 75.9459 522.509 80.401 520.059C82.4799 518.917 84.2435 517.108 84.6907 514.608C85.0818 512.421 84.5712 510.193 84.2952 508.027C83.9545 505.797 84.1387 503.513 84.8316 501.376C85.6459 499.165 86.8124 497.116 88.281 495.317C91.5258 491.21 95.3649 487.665 99.6577 484.812C104.54 481.527 109.921 479.143 115.568 477.765C115.917 477.68 115.976 478.264 115.629 478.349V478.349Z" fill="white"/>
<path d="M91.3564 492.16C90.1862 490.754 89.5296 488.957 89.504 487.09C89.4784 485.222 90.0854 483.406 91.2166 481.965C91.4464 481.675 91.8871 482.036 91.657 482.327C90.6012 483.667 90.036 485.359 90.0632 487.098C90.0904 488.837 90.7084 490.508 91.8055 491.81C92.0436 492.094 91.5932 492.442 91.3564 492.16V492.16Z" fill="white"/>
<path d="M84.5503 506.61C88.1735 506.899 91.7671 505.742 94.6146 503.37C94.8966 503.135 95.2291 503.607 94.9475 503.842C91.98 506.304 88.2379 507.5 84.4682 507.191C84.1089 507.161 84.193 506.58 84.5503 506.61V506.61Z" fill="white"/>
<path d="M104.659 482.295C105.004 482.939 105.495 483.482 106.089 483.876C106.683 484.27 107.361 484.503 108.062 484.554C108.421 484.579 108.337 485.159 107.98 485.135C107.206 485.075 106.457 484.816 105.8 484.383C105.143 483.949 104.597 483.352 104.21 482.645C104.168 482.582 104.15 482.504 104.161 482.428C104.172 482.351 104.21 482.282 104.268 482.234C104.327 482.188 104.402 482.169 104.475 482.18C104.548 482.192 104.614 482.233 104.659 482.295H104.659Z" fill="white"/>
<path d="M396.093 486.961C394.932 473.69 387.534 460.403 375.669 455.697C379.984 469.462 379.527 484.387 374.378 497.831C372.374 503.009 369.632 508.548 371.205 513.888C372.183 517.21 374.746 519.813 377.648 521.484C380.551 523.156 383.802 524.016 387.013 524.859L387.633 525.434C393.138 513.428 397.253 500.232 396.093 486.961Z" fill="#F0F0F0"/>
<path d="M375.542 455.943C382.277 464.404 386.304 474.88 387.05 485.883C387.251 488.249 387.095 490.633 386.589 492.948C386.027 495.186 384.905 497.225 383.339 498.853C381.908 500.402 380.273 501.813 379.226 503.7C378.703 504.675 378.382 505.755 378.285 506.868C378.187 507.982 378.314 509.105 378.659 510.164C379.452 512.825 381.107 515.028 382.797 517.123C384.674 519.449 386.658 521.834 387.393 524.859C387.482 525.226 388.018 525.059 387.929 524.693C386.65 519.43 381.923 516.306 379.769 511.532C378.764 509.304 378.392 506.745 379.468 504.466C380.408 502.472 382.093 501.016 383.555 499.461C385.104 497.896 386.266 495.956 386.937 493.811C387.554 491.531 387.797 489.157 387.655 486.791C387.417 481.46 386.383 476.201 384.591 471.207C382.575 465.495 379.644 460.188 375.925 455.515C375.695 455.226 375.313 455.655 375.542 455.943L375.542 455.943Z" fill="white"/>
<path d="M387.008 482.325C388.748 481.943 390.302 480.924 391.392 479.449C392.483 477.974 393.039 476.14 392.961 474.274C392.958 474.198 392.926 474.126 392.873 474.074C392.82 474.022 392.749 473.994 392.677 473.995C392.605 473.997 392.535 474.028 392.484 474.081C392.433 474.135 392.404 474.208 392.402 474.284C392.478 476.022 391.96 477.73 390.941 479.101C389.923 480.473 388.472 481.416 386.85 481.762C386.497 481.838 386.658 482.4 387.008 482.325V482.325Z" fill="white"/>
<path d="M384.163 498.168C381.104 496.107 378.898 492.91 377.983 489.215C377.893 488.849 377.357 489.015 377.447 489.381C378.406 493.224 380.708 496.546 383.895 498.684C384.199 498.888 384.465 498.371 384.163 498.168H384.163Z" fill="white"/>
<path d="M382.039 466.034C381.395 466.329 380.692 466.451 379.992 466.39C379.292 466.329 378.617 466.086 378.028 465.684C377.727 465.476 377.462 465.993 377.761 466.2C378.413 466.641 379.159 466.909 379.932 466.978C380.706 467.047 381.483 466.916 382.197 466.597C382.267 466.573 382.326 466.522 382.361 466.454C382.396 466.386 382.405 466.307 382.386 466.232C382.365 466.158 382.317 466.095 382.252 466.058C382.187 466.021 382.11 466.012 382.039 466.034H382.039Z" fill="white"/>
<path d="M338.377 478.072C338.562 478.207 338.747 478.342 338.931 478.482C341.405 480.313 343.732 482.352 345.891 484.58C346.061 484.749 346.23 484.923 346.395 485.097C351.542 490.521 355.686 496.902 358.616 503.916C359.779 506.708 360.739 509.589 361.487 512.534C362.519 516.601 363.33 521.097 365.517 524.469C365.741 524.823 365.986 525.163 366.25 525.486L386.918 526.183C386.965 526.16 387.013 526.142 387.061 526.118L387.885 526.186C387.857 526.031 387.824 525.871 387.796 525.717C387.779 525.627 387.759 525.537 387.743 525.447C387.73 525.387 387.718 525.327 387.71 525.272C387.706 525.252 387.702 525.232 387.698 525.217C387.69 525.163 387.677 525.113 387.669 525.063C387.489 524.169 387.302 523.275 387.109 522.38C387.109 522.375 387.109 522.375 387.105 522.37C385.697 515.541 383.523 508.911 380.628 502.62C380.54 502.434 380.451 502.242 380.353 502.055C379.009 499.268 377.45 496.602 375.692 494.081C374.726 492.705 373.693 491.38 372.599 490.113C369.766 486.845 366.461 484.066 362.806 481.877C355.519 477.514 346.986 475.649 338.987 477.894C338.782 477.951 338.582 478.009 338.377 478.072Z" fill="#F0F0F0"/>
<path d="M338.415 478.349C348.641 480.844 357.859 486.661 364.76 494.974C366.275 496.736 367.517 498.738 368.44 500.907C369.273 503.049 369.546 505.387 369.228 507.678C368.973 509.82 368.476 511.98 368.722 514.15C368.863 515.259 369.225 516.324 369.785 517.275C370.346 518.226 371.091 519.042 371.973 519.67C374.13 521.293 376.714 522.004 379.264 522.608C382.095 523.279 385.046 523.928 387.367 525.878C387.648 526.114 387.98 525.642 387.7 525.406C383.662 522.013 378.098 522.509 373.643 520.059C371.564 518.917 369.801 517.108 369.353 514.608C368.962 512.421 369.473 510.193 369.749 508.027C370.09 505.797 369.905 503.513 369.213 501.376C368.398 499.165 367.232 497.116 365.763 495.317C362.518 491.21 358.679 487.665 354.386 484.812C349.504 481.527 344.123 479.143 338.476 477.765C338.127 477.68 338.068 478.264 338.415 478.349V478.349Z" fill="white"/>
<path d="M362.688 492.16C363.858 490.754 364.514 488.957 364.54 487.09C364.566 485.222 363.959 483.406 362.828 481.965C362.598 481.675 362.157 482.036 362.387 482.327C363.443 483.667 364.008 485.359 363.981 487.098C363.954 488.837 363.336 490.508 362.239 491.81C362 492.094 362.451 492.442 362.688 492.16V492.16Z" fill="white"/>
<path d="M369.494 506.61C365.871 506.899 362.277 505.742 359.43 503.37C359.148 503.135 358.815 503.607 359.097 503.842C362.064 506.304 365.806 507.5 369.576 507.191C369.935 507.161 369.851 506.58 369.494 506.61V506.61Z" fill="white"/>
<path d="M349.385 482.295C349.041 482.939 348.549 483.482 347.955 483.876C347.361 484.27 346.683 484.503 345.982 484.554C345.623 484.579 345.707 485.159 346.064 485.135C346.838 485.075 347.587 484.816 348.244 484.383C348.901 483.949 349.447 483.352 349.835 482.645C349.876 482.582 349.894 482.504 349.883 482.428C349.872 482.351 349.834 482.282 349.776 482.234C349.717 482.188 349.642 482.169 349.569 482.18C349.496 482.192 349.43 482.233 349.385 482.295H349.385Z" fill="white"/>
<path d="M539 527.246C539 527.446 538.924 527.637 538.789 527.779C538.655 527.92 538.473 528 538.282 528H0.717963C0.527613 528 0.345056 527.921 0.210458 527.779C0.0758596 527.638 0.000244141 527.446 0.000244141 527.246C0.000244141 527.046 0.0758596 526.854 0.210458 526.713C0.345056 526.571 0.527613 526.492 0.717963 526.492H538.282C538.473 526.492 538.655 526.572 538.789 526.713C538.924 526.854 539 527.046 539 527.246V527.246Z" fill="#3F3D56"/>
<path d="M346.261 235.514C347.76 235.514 348.975 234.238 348.975 232.663C348.975 231.088 347.76 229.811 346.261 229.811C344.762 229.811 343.547 231.088 343.547 232.663C343.547 234.238 344.762 235.514 346.261 235.514Z" fill="#3F3D56"/>
<path d="M312.275 254.629L348.865 230.475C349.196 230.256 349.566 230.11 349.952 230.046C350.338 229.982 350.732 230.001 351.111 230.101C351.49 230.202 351.846 230.382 352.157 230.631C352.468 230.88 352.728 231.192 352.92 231.55C353.113 231.907 353.235 232.302 353.278 232.71C353.322 233.118 353.286 233.531 353.174 233.925C353.061 234.318 352.874 234.683 352.623 234.998C352.372 235.313 352.063 235.572 351.714 235.758L313.194 256.332C312.98 256.446 312.732 256.469 312.502 256.397C312.273 256.324 312.079 256.161 311.96 255.942C311.842 255.722 311.809 255.463 311.867 255.219C311.926 254.975 312.072 254.763 312.275 254.629V254.629Z" fill="#E4E4E4"/>
<path d="M238.869 306.639C238.581 306.189 238.43 305.657 238.438 305.114C238.445 304.572 238.61 304.044 238.91 303.603C239.53 302.732 240.354 302.045 241.303 301.61C243.26 300.563 245.369 299.863 247.544 299.538C249.197 299.291 251.001 299.212 252.283 298.089C253.556 296.973 254.267 294.886 255.917 294.712C257.512 294.544 258.738 296.378 260.338 296.492C262.31 296.633 263.601 294.208 265.52 293.711C266.804 293.378 268.125 293.965 269.329 294.539L276.559 297.986L280.265 299.752C281.559 300.369 283.019 301.2 283.263 302.671C283.599 304.693 281.46 306.119 279.63 306.837C266.566 311.903 252.211 311.905 239.145 306.842" fill="#FA4F59"/>
<path d="M249.761 343.882C302.223 343.882 344.753 337.498 344.753 329.623C344.753 321.748 302.223 315.364 249.761 315.364C197.298 315.364 154.769 321.748 154.769 329.623C154.769 337.498 197.298 343.882 249.761 343.882Z" fill="#3F3D56"/>
<path d="M442.459 418.029H377.321C374.324 418.029 371.893 420.582 371.893 423.732C371.893 426.882 374.324 429.436 377.321 429.436H442.459C445.457 429.436 447.887 426.882 447.887 423.732C447.887 420.582 445.457 418.029 442.459 418.029Z" fill="#3F3D56"/>
<path d="M474.026 316.34L452.513 423.726L458.116 451.211L468.695 503.082V526.397C468.696 526.428 468.694 526.46 468.689 526.492C468.685 527.007 468.595 527.517 468.423 528H459.919C459.747 527.517 459.657 527.007 459.654 526.492C459.649 526.46 459.647 526.428 459.648 526.397V504.083L450.046 457.003L448.104 447.497L444.346 429.075L443.261 423.739V423.732L444.334 418.384L445.161 414.258L465.173 314.388C465.294 313.777 465.529 313.197 465.864 312.681C466.199 312.165 466.627 311.724 467.125 311.382C467.622 311.04 468.179 310.805 468.763 310.689C469.347 310.574 469.947 310.58 470.529 310.708C471.111 310.837 471.663 311.084 472.153 311.437C472.644 311.789 473.064 312.24 473.388 312.763C473.713 313.286 473.937 313.871 474.046 314.485C474.156 315.099 474.149 315.729 474.026 316.34L474.026 316.34Z" fill="#3F3D56"/>
<path d="M381.845 423.732V526.397C381.846 526.428 381.844 526.46 381.839 526.492C381.835 527.007 381.745 527.517 381.573 528H373.069C372.897 527.517 372.808 527.007 372.804 526.492C372.799 526.46 372.797 526.428 372.798 526.397V423.732C372.798 422.472 373.275 421.263 374.123 420.371C374.971 419.48 376.122 418.979 377.321 418.979C378.521 418.979 379.672 419.48 380.52 420.371C381.368 421.263 381.845 422.472 381.845 423.732Z" fill="#3F3D56"/>
<path d="M388.178 406.622H431.603C435.921 406.622 440.063 408.424 443.117 411.633C446.171 414.842 447.887 419.194 447.887 423.732V423.732H371.893C371.893 419.194 373.609 414.842 376.663 411.633C379.717 408.424 383.859 406.622 388.178 406.622V406.622Z" fill="#3F3D56"/>
<path d="M453.315 457.003H377.321C376.122 457.003 374.971 456.502 374.123 455.611C373.275 454.72 372.798 453.511 372.798 452.25C372.798 450.99 373.275 449.781 374.123 448.889C374.971 447.998 376.122 447.497 377.321 447.497H453.315C454.515 447.497 455.665 447.998 456.514 448.889C457.362 449.781 457.838 450.99 457.838 452.25C457.838 453.511 457.362 454.72 456.514 455.611C455.665 456.502 454.515 457.003 453.315 457.003Z" fill="#3F3D56"/>
<path d="M99.8295 429.609H176.481C179.479 429.609 181.909 427.055 181.909 423.905V422.177C181.909 419.027 179.479 416.473 176.481 416.473H99.8295C96.8316 416.473 94.4014 419.027 94.4014 422.177V423.905C94.4014 427.055 96.8316 429.609 99.8295 429.609Z" fill="#3F3D56"/>
<path d="M99.0401 423.118L97.6527 429.125L92.5624 451.129L90.3672 460.634L80.1742 504.729V523.862C80.1769 524.798 79.9122 525.715 79.4144 526.492C79.023 527.12 78.4908 527.638 77.8645 528H73.4373C72.811 527.638 72.2788 527.12 71.8874 526.492C71.3895 525.715 71.1247 524.799 71.1273 523.862V503.589L82.4541 454.601L89.7641 422.966L64.9756 299.23C64.8529 298.619 64.846 297.989 64.9553 297.375C65.0645 296.762 65.2878 296.177 65.6123 295.654C65.9368 295.131 66.3562 294.681 66.8465 294.328C67.3368 293.976 67.8884 293.729 68.4697 293.6C69.0511 293.472 69.6508 293.465 70.2346 293.581C70.8184 293.696 71.3747 293.932 71.872 294.273C72.3692 294.615 72.7974 295.056 73.1323 295.571C73.4671 296.087 73.702 296.667 73.8234 297.278L96.7362 411.622L97.7917 416.894L99.0218 423.042L99.0401 423.118Z" fill="#3F3D56"/>
<path d="M180.184 423.042V523.862C180.187 524.799 179.922 525.715 179.424 526.492C179.033 527.12 178.501 527.638 177.874 528H173.441C172.818 527.636 172.288 527.118 171.897 526.492C171.399 525.715 171.135 524.798 171.137 523.862V423.042C171.137 421.781 171.614 420.572 172.462 419.681C173.311 418.789 174.461 418.289 175.661 418.289C176.861 418.289 178.011 418.789 178.859 419.681C179.708 420.572 180.184 421.781 180.184 423.042Z" fill="#3F3D56"/>
<path d="M181.909 423.041H94.4014V420.448C94.4014 418.201 94.8226 415.976 95.6409 413.9C96.4593 411.824 97.6588 409.938 99.1709 408.349C100.683 406.76 102.478 405.5 104.454 404.64C106.43 403.78 108.547 403.338 110.686 403.338H165.625C169.944 403.338 174.086 405.14 177.14 408.349C180.194 411.558 181.909 415.91 181.909 420.448V423.041H181.909Z" fill="#3F3D56"/>
<path d="M175.659 460.633H88.1508C86.9511 460.633 85.8006 460.132 84.9523 459.24C84.104 458.349 83.6274 457.14 83.6274 455.88C83.6274 454.619 84.104 453.41 84.9523 452.519C85.8006 451.627 86.9511 451.127 88.1508 451.127H175.659C176.858 451.127 178.009 451.627 178.857 452.519C179.706 453.41 180.182 454.619 180.182 455.88C180.182 457.14 179.706 458.349 178.857 459.24C178.009 460.132 176.858 460.633 175.659 460.633Z" fill="#3F3D56"/>
<path d="M288.12 502.094L278.613 497.316L291.673 455.56L305.705 462.611L288.12 502.094Z" fill="#9E616A"/>
<path d="M352.551 498.312L342.328 500.962L327.516 459.866L342.605 455.954L352.551 498.312Z" fill="#9E616A"/>
<path d="M313.368 320.603C314.724 322.918 316.887 324.583 319.396 325.244C321.904 325.905 324.56 325.51 326.795 324.143C327.244 323.857 327.67 323.533 328.069 323.173L358.126 341.297L356.821 322.692L328.478 308.333C326.936 306.705 324.923 305.661 322.755 305.364C320.588 305.068 318.388 305.535 316.5 306.694C315.413 307.379 314.468 308.287 313.72 309.362C312.972 310.437 312.436 311.659 312.144 312.955C311.853 314.251 311.81 315.596 312.021 316.909C312.231 318.223 312.689 319.479 313.368 320.603V320.603Z" fill="#9E616A"/>
<path d="M345.204 334.472L350.517 337.875L374.379 353.164C375.946 354.194 377.692 354.89 379.515 355.211C381.339 355.533 383.204 355.473 385.006 355.036C386.807 354.599 388.509 353.794 390.014 352.665C391.519 351.537 392.798 350.108 393.777 348.46C395.544 345.401 396.169 341.763 395.532 338.248L384.926 282.573C384.534 280.388 383.698 278.317 382.474 276.502C381.251 274.687 379.668 273.172 377.836 272.059C376.003 270.946 373.964 270.261 371.857 270.053C369.749 269.844 367.624 270.116 365.626 270.85C362.268 272.09 359.485 274.628 357.844 277.948C356.203 281.267 355.828 285.119 356.794 288.719L367.884 328.23L350.885 319.902L345.204 334.472Z" fill="#E6E6E6"/>
<path d="M332.641 486.795L316.282 452.321L316.285 452.242L317.9 389.011C317.92 388.448 317.963 387.883 318.028 387.327C318.314 384.792 319.077 382.342 320.272 380.119C321.468 377.897 323.073 375.947 324.993 374.383C326.833 372.871 328.94 371.759 331.193 371.111C333.445 370.464 335.798 370.295 338.114 370.613L384.892 376.974L386.514 370.004L386.816 369.888L431.637 352.628L431.895 353.07C437.765 363.106 441.869 383.153 442.987 389.058L443.003 389.143C443.027 389.267 443.041 389.343 443.046 389.365C445.353 399.442 435.819 416.134 426.321 418.643C406.316 424.001 388.424 419.822 367.706 414.982C360.278 413.245 352.6 411.451 344.143 409.9L344.394 415.13C344.6 419.155 345.396 423.123 346.754 426.894C348.262 431.534 349.453 435.199 346.934 442.841L345.716 446.538C346.348 448.374 346.565 450.338 346.351 452.277C346.137 454.216 345.498 456.076 344.483 457.71L344.238 458.104L355.026 486.789L332.641 486.795Z" fill="#450063"/>
<path d="M305.763 471.549L286.255 469.644L293.166 446.42C294.592 431.255 298.186 416.403 303.826 402.365L313.253 378.89C313.275 378.368 313.317 377.842 313.377 377.327C313.663 374.791 314.425 372.341 315.621 370.119C316.817 367.896 318.422 365.946 320.342 364.383C322.182 362.871 324.289 361.759 326.542 361.112C328.794 360.465 331.147 360.295 333.462 360.613L380.171 366.964L382.206 349.023L427.039 342.719L427.244 343.07C435.08 356.467 440.055 366.955 442.901 376.077C443.043 376.542 443.17 377.016 443.279 377.489C445.602 387.634 439.803 397.92 430.351 400.417C406.266 406.869 377.302 406.69 339.222 399.85L320.792 445.935C319.03 450.337 316.849 454.54 314.282 458.48L305.763 471.549Z" fill="#450063"/>
<path d="M373.81 238.898C386.29 238.898 396.407 228.03 396.407 214.625C396.407 201.219 386.29 190.351 373.81 190.351C361.33 190.351 351.212 201.219 351.212 214.625C351.212 228.03 361.33 238.898 373.81 238.898Z" fill="#9E616A"/>
<path d="M380.335 367.811L377.092 355.606L376.295 349.586L371.635 349.749L362.489 327.566L358.936 321.717C358.212 320.916 357.555 320.145 356.967 319.405C353.266 315.009 350.298 309.987 348.189 304.552C346.711 300.647 345.843 296.516 345.619 292.32C344.956 279.926 349.928 266.813 360.821 252.234C360.642 251.718 360.523 251.182 360.466 250.636C360.271 248.865 360.75 247.084 361.798 245.682C362.846 244.28 364.379 243.37 366.062 243.149L376.568 241.909C377.385 241.812 378.212 241.886 379.002 242.128C379.791 242.37 380.527 242.774 381.166 243.318C381.833 243.88 382.387 244.576 382.796 245.365C383.205 246.155 383.46 247.022 383.547 247.916C383.688 249.299 383.429 250.694 382.804 251.92C388.159 252.635 393.205 254.957 397.335 258.609C401.465 262.261 404.505 267.088 406.091 272.51C412.377 284.841 417.388 297.844 421.036 311.298C421.756 313.933 421.435 316.648 421.126 319.274C420.84 321.699 420.544 324.207 421.041 326.707C421.547 329.249 422.765 331.799 424.053 334.499C425.53 337.592 427.056 340.79 427.468 344.049L427.498 344.278L380.335 367.811Z" fill="#E4E4E4"/>
<path opacity="0.2" d="M348.468 304.432C350.568 309.836 353.519 314.829 357.198 319.201C357.829 319.992 358.494 320.769 359.191 321.547L362.765 327.44C375.943 317.062 386.619 276.198 386.619 276.198L371.751 273.159L348.468 304.432Z" fill="black"/>
<path d="M339.467 241.166C340.769 243.515 341.146 246.306 340.52 248.944C339.893 251.583 338.312 253.86 336.112 255.291C335.661 255.575 335.187 255.819 334.698 256.02L335.75 292.419L320.749 282.496L322.049 249.453C321.411 247.254 321.484 244.895 322.256 242.744C323.027 240.593 324.455 238.771 326.316 237.562C327.4 236.873 328.605 236.419 329.858 236.228C331.112 236.036 332.39 236.11 333.616 236.446C334.841 236.782 335.991 237.373 336.996 238.184C338.001 238.994 338.841 240.008 339.467 241.166V241.166Z" fill="#9E616A"/>
<path d="M337.069 278.679L320.572 281.144L321.281 317.04C321.322 319.6 321.986 322.107 323.209 324.323C324.432 326.538 326.174 328.388 328.269 329.697V329.697C330.829 331.279 333.808 331.944 336.759 331.592C339.71 331.24 342.472 329.89 344.629 327.745L383.575 288.383C386.316 285.651 387.956 281.92 388.158 277.957C388.361 273.994 387.11 270.1 384.664 267.076V267.076C383.453 265.571 381.967 264.336 380.294 263.445C378.62 262.555 376.794 262.026 374.922 261.892C373.051 261.757 371.173 262.019 369.399 262.661C367.626 263.304 365.994 264.314 364.599 265.633C364.214 265.994 363.848 266.377 363.503 266.78L337.786 297.866L337.069 278.679Z" fill="#E6E6E6"/>
<path d="M199.094 512.814L210.803 512.814L216.373 465.358L199.092 465.358L199.094 512.814Z" fill="#FFB6B6"/>
<path d="M132.724 239.603C145.631 239.603 156.094 228.608 156.094 215.046C156.094 201.485 145.631 190.49 132.724 190.49C119.817 190.49 109.354 201.485 109.354 215.046C109.354 228.608 119.817 239.603 132.724 239.603Z" fill="#FFB6B6"/>
<path d="M214.624 498.196H198.043L193.816 492.242L192.672 486.632L191.687 485.631C190.351 484.283 189.487 482.501 189.235 480.573C188.984 478.646 189.359 476.685 190.301 475.009L178.284 416.097C175.136 415.806 139.642 412.472 114.969 407.883C108.654 406.709 103.724 403.484 100.316 398.297C91.9395 385.553 95.5276 364.931 95.5647 364.724L95.6061 364.494L95.8274 364.468L153.459 357.671L153.536 357.71C155.449 358.662 200.46 381.115 207.816 388.843C211.137 392.334 218.548 413.069 220.207 435.114C220.504 439.063 219.434 443.086 218.4 446.975C217.432 450.614 216.432 454.378 216.63 457.935C216.935 463.424 217.224 469.182 217.489 475.049C217.531 475.984 218.202 476.952 218.85 477.887C219.527 478.865 220.167 479.788 220.207 480.754C220.601 490.123 214.774 497.997 214.715 498.075L214.624 498.196Z" fill="#2F2E41"/>
<path d="M218.4 280.451C217.144 280.091 215.829 280.024 214.546 280.255C213.263 280.486 212.045 281.01 210.975 281.79C209.906 282.57 209.013 283.587 208.358 284.769C207.703 285.951 207.303 287.269 207.186 288.631L187.768 295.008L188.578 308.352L215.879 298.942C218.07 298.997 220.204 298.207 221.877 296.72C223.55 295.232 224.645 293.152 224.956 290.873C225.266 288.594 224.771 286.274 223.562 284.353C222.354 282.433 220.517 281.044 218.4 280.451V280.451Z" fill="#FFB6B6"/>
<path d="M205.73 302.533L191.218 308.305L190.847 309.061C189.957 310.875 188.418 312.243 186.569 312.864C184.719 313.486 182.71 313.31 180.984 312.375L148.364 325.347C148.364 325.347 133.797 310.03 123.426 296.36L126.961 273.515C127.779 268.215 129.519 263.118 132.094 258.479C153.364 263.38 165.573 294.622 165.573 294.622L203.907 286.937L205.73 302.533Z" fill="#450063"/>
<path d="M129.403 238.29C123.552 239.95 117.102 237.743 112.536 233.556C107.97 229.369 105.114 223.435 103.469 217.307C102.263 212.818 101.692 207.836 103.594 203.622C105.496 199.408 110.615 196.565 114.564 198.694C112.128 195.711 113.345 190.779 116.19 188.227C119.035 185.676 122.943 184.944 126.664 184.544C132.064 183.964 137.643 183.899 142.781 185.738C147.92 187.576 152.59 191.595 154.198 197.043C155.841 197.847 157.691 198.055 159.458 197.636C161.226 197.217 162.811 196.193 163.965 194.726C164.263 196.411 164.024 198.152 163.285 199.68C162.546 201.208 161.349 202.438 159.878 203.179L167.752 200.496C169.106 203.508 166.733 207.236 163.699 208.2C160.664 209.165 157.389 208.11 154.51 206.717C151.63 205.324 148.84 203.562 145.712 203.019C142.585 202.475 138.911 203.531 137.464 206.495C136.706 208.047 136.667 209.865 136.227 211.548C135.787 213.23 134.673 214.974 133.017 215.112C131.972 215.199 130.948 214.613 129.905 214.733C128.612 214.881 127.623 216.112 127.278 217.43C127.019 218.773 127.016 220.156 127.269 221.5L129.269 237.564" fill="#2F2E41"/>
<path d="M100.45 401.232C100.445 401.232 100.441 401.231 100.437 401.23L100.252 401.197L100.198 401.008C99.5265 398.634 98.6715 396.203 97.8447 393.852C96.6269 390.597 95.5987 387.266 94.7657 383.88C94.1102 380.642 93.6556 377.363 93.405 374.063C93.1743 371.667 92.9358 369.19 92.5302 366.751C92.3501 365.668 93.0326 364.643 93.6926 363.651C94.3046 362.732 94.8827 361.863 94.7613 361.042C94.6373 360.201 93.7506 359.279 92.8931 358.386C91.9531 357.408 90.9811 356.397 90.8435 355.332C88.9702 340.807 88.0982 326.158 88.2345 311.501C88.4281 291.221 89.3003 277.398 90.8268 270.416C94.9316 251.64 113.896 248.214 116.864 247.791C117.18 246.906 117.666 246.099 118.292 245.42C118.918 244.741 119.67 244.205 120.501 243.844C121.333 243.484 122.226 243.307 123.126 243.326C124.025 243.344 124.911 243.556 125.729 243.949L139.203 250.431C141.936 251.75 144.382 253.646 146.389 256C148.395 258.355 149.919 261.118 150.866 264.117L152.868 270.529L153.871 313.572L148.314 343.882L159.171 360.993C101.311 394.372 100.636 401.232 100.45 401.232Z" fill="#450063"/>
<path d="M192.793 508.033L196.6 508.032L211.463 501.681L219.429 508.031H219.43C223.932 508.032 228.25 509.911 231.433 513.256C234.616 516.601 236.405 521.137 236.405 525.867V526.447L192.794 526.449L192.793 508.033Z" fill="#2F2E41"/>
<path d="M223.262 311.167C222.139 310.475 220.886 310.049 219.59 309.921C218.295 309.793 216.988 309.964 215.762 310.424C214.536 310.884 213.421 311.62 212.496 312.582C211.57 313.543 210.857 314.706 210.405 315.989L190.076 316.822L187.337 326.772L216.237 328.326C218.338 328.98 220.595 328.802 222.579 327.825C224.563 326.848 226.137 325.14 227.003 323.025C227.869 320.91 227.966 318.534 227.277 316.349C226.587 314.163 225.159 312.32 223.262 311.167V311.167Z" fill="#FFB6B6"/>
<path d="M206.563 329.399L185.682 329.125L183.038 329.088L140.554 328.525C140.554 328.525 129.017 316.96 118.971 305.053L120.379 294.352C121.752 283.85 126.71 274.23 134.33 267.282C148.719 277.384 157.063 297.379 157.063 297.379L171.053 303.957C180.899 304.42 190.493 307.372 199.021 312.564L203.622 315.364L206.563 329.399Z" fill="#450063"/>
<path d="M360.011 518.554L353.063 520.355L350.204 513.784L348.646 521.501L330.219 526.279C329.335 526.508 328.406 526.435 327.565 526.069C326.724 525.704 326.017 525.065 325.546 524.247C325.075 523.429 324.865 522.475 324.947 521.523C325.029 520.571 325.398 519.671 326.001 518.955L338.209 504.46L336.572 497.492L352.279 494.449L360.011 518.554Z" fill="#2F2E41"/>
<path d="M286.405 520.807L279.779 517.965L281.15 510.885L275.567 516.159L257.994 508.622C257.152 508.26 256.441 507.626 255.967 506.81C255.492 505.995 255.278 505.041 255.355 504.089C255.433 503.136 255.798 502.235 256.398 501.516C256.998 500.797 257.8 500.298 258.689 500.093L276.678 495.928L279.259 489.283L293.66 496.539L286.405 520.807Z" fill="#2F2E41"/>
<path d="M263.331 327.088H257.903C252.066 327.081 246.471 324.642 242.344 320.306C238.217 315.969 235.895 310.09 235.889 303.957V303.64H285.345V303.957C285.338 310.09 283.017 315.969 278.89 320.306C274.763 324.642 269.167 327.081 263.331 327.088V327.088Z" fill="#E4E4E4"/>
<path d="M257.903 295.402C257.903 296.977 255.189 298.254 255.189 298.254C255.189 298.254 252.475 296.977 252.475 295.402C252.475 293.827 255.189 292.55 255.189 292.55C255.189 292.55 257.903 293.827 257.903 295.402Z" fill="#3F3D56"/>
<path d="M274.187 295.402C274.187 296.977 271.473 298.254 271.473 298.254C271.473 298.254 268.759 296.977 268.759 295.402C268.759 293.827 271.473 292.55 271.473 292.55C271.473 292.55 274.187 293.827 274.187 295.402Z" fill="#3F3D56"/>
<path d="M263.331 301.105C263.331 302.68 260.617 303.957 260.617 303.957C260.617 303.957 257.903 302.68 257.903 301.105C257.903 299.53 260.617 298.254 260.617 298.254C260.617 298.254 263.331 299.53 263.331 301.105Z" fill="#3F3D56"/>
<path d="M244.333 289.381C245.832 289.381 247.047 288.105 247.047 286.53C247.047 284.955 245.832 283.678 244.333 283.678C242.834 283.678 241.619 284.955 241.619 286.53C241.619 288.105 242.834 289.381 244.333 289.381Z" fill="#3F3D56"/>
<path d="M204.861 280.401L247.666 286.613C248.053 286.669 248.426 286.807 248.761 287.019C249.096 287.23 249.386 287.511 249.615 287.844C249.844 288.177 250.007 288.555 250.092 288.956C250.178 289.357 250.186 289.771 250.115 290.175C250.044 290.579 249.896 290.964 249.679 291.306C249.463 291.648 249.183 291.941 248.856 292.166C248.529 292.391 248.162 292.544 247.777 292.616C247.392 292.688 246.998 292.677 246.617 292.584L204.522 282.326C204.289 282.269 204.085 282.119 203.953 281.909C203.822 281.698 203.773 281.442 203.816 281.194C203.86 280.946 203.993 280.725 204.187 280.577C204.382 280.43 204.623 280.367 204.861 280.401V280.401Z" fill="#E4E4E4"/>
<path d="M434.278 204.097C430.437 199.391 428.611 193.146 425.541 187.802C422.47 182.457 417.126 177.673 411.481 178.917C407.59 179.775 404.582 183.383 403.06 187.405C401.538 191.428 401.252 195.864 400.985 200.21C401.08 191.279 395.48 182.621 387.766 179.771C380.052 176.921 370.821 180.1 365.974 187.275C363.859 185.215 361.098 184.042 358.214 183.979C355.331 183.915 352.525 184.965 350.33 186.93C345.994 191.002 345.035 198.751 348.223 203.945C351.412 209.138 358.317 211.073 363.384 208.192L365.175 209.924C364.167 213.63 366.123 218.007 369.41 219.402C372.075 220.533 375.838 220.345 376.836 223.284C377.533 225.338 376.23 227.53 374.844 229.108C373.458 230.686 371.813 232.316 371.647 234.5C371.395 237.795 374.636 240.103 377.582 240.798C384.685 242.474 392.566 239.018 396.66 232.431C396.739 232.304 396.825 232.177 396.918 232.05C399.215 228.963 400.889 225.417 401.837 221.628C402.786 217.839 402.989 213.886 402.435 210.012C402.205 208.489 402.437 207.357 403.436 206.996C407.753 205.438 419.85 208.709 423.511 211.665C427.172 214.621 430.104 218.533 433.63 221.679C437.157 224.826 441.65 227.253 446.128 226.396C449.714 225.71 452.765 222.975 454.817 219.675C456.868 216.375 458.049 212.529 459.107 208.707C451.177 213.52 440.324 211.505 434.278 204.097Z" fill="#2F2E41"/>
</g>
<defs>
<linearGradient id="paint0_linear_14_693" x1="252.841" y1="505.669" x2="252.841" y2="37.7566" gradientUnits="userSpaceOnUse">
<stop stop-color="#808080" stop-opacity="0.25"/>
<stop offset="0.53514" stop-color="#808080" stop-opacity="0.12"/>
<stop offset="1" stop-color="#808080" stop-opacity="0.1"/>
</linearGradient>
<clipPath id="clip0_14_693">
<rect width="539" height="475" fill="white" transform="translate(0 53)"/>
</clipPath>
</defs>
</svg>
